<svg width="24" height="24" viewBox="0 0 24 24" fill="none" xmlns="http://www.w3.org/2000/svg">
<path fill-rule="evenodd" clip-rule="evenodd" d="M4.056 11.7232C3.928 11.8872 3.928 12.1128 4.056 12.2768L7.656 16.8901C7.93277 17.2448 8.52 17.0567 8.52 16.6133L8.52 14.768C8.52 14.5132 8.7349 14.3067 9 14.3067C9.2651 14.3067 9.48 14.5132 9.48 14.768L9.48 16.6133C9.48 17.9434 7.71832 18.5077 6.888 17.4437L3.288 12.8304C2.904 12.3383 2.904 11.6617 3.288 11.1696L6.888 6.55628C7.71832 5.49225 9.48 6.05664 9.48 7.38668L9.48 11.0773C9.48 11.3321 9.69491 11.5387 9.96 11.5387L20.52 11.5387C20.7851 11.5387 21 11.7452 21 12C21 12.2548 20.7851 12.4613 20.52 12.4613L9.96 12.4613C9.16471 12.4613 8.52 11.8417 8.52 11.0773L8.52 7.38668C8.52 6.94333 7.93277 6.7552 7.656 7.10988L4.056 11.7232Z" fill="#13A4BD"/>
</svg>
