<svg width="24" height="24" viewBox="0 0 24 24" fill="none" xmlns="http://www.w3.org/2000/svg">
<path fill-rule="evenodd" clip-rule="evenodd" d="M19.944 11.7232C20.072 11.8872 20.072 12.1128 19.944 12.2768L16.344 16.8901C16.0672 17.2448 15.48 17.0567 15.48 16.6133L15.48 14.768C15.48 14.5132 15.2651 14.3067 15 14.3067C14.7349 14.3067 14.52 14.5132 14.52 14.768L14.52 16.6133C14.52 17.9434 16.2817 18.5077 17.112 17.4437L20.712 12.8304C21.096 12.3383 21.096 11.6617 20.712 11.1696L17.112 6.55628C16.2817 5.49225 14.52 6.05664 14.52 7.38668L14.52 11.0773C14.52 11.3321 14.3051 11.5387 14.04 11.5387L3.48 11.5387C3.2149 11.5387 3 11.7452 3 12C3 12.2548 3.2149 12.4613 3.48 12.4613L14.04 12.4613C14.8353 12.4613 15.48 11.8417 15.48 11.0773L15.48 7.38668C15.48 6.94333 16.0672 6.7552 16.344 7.10988L19.944 11.7232Z" fill="#13A4BD"/>
</svg>
