<svg width="24" height="24" viewBox="0 0 24 24" fill="none" xmlns="http://www.w3.org/2000/svg">
<path fill-rule="evenodd" clip-rule="evenodd" d="M11.7232 19.944C11.8872 20.072 12.1128 20.072 12.2768 19.944L16.8901 16.344C17.2448 16.0672 17.0567 15.48 16.6133 15.48H14.768C14.5132 15.48 14.3067 15.2651 14.3067 15C14.3067 14.7349 14.5132 14.52 14.768 14.52H16.6133C17.9434 14.52 18.5077 16.2817 17.4437 17.112L12.8304 20.712C12.3383 21.096 11.6617 21.096 11.1696 20.712L6.55628 17.112C5.49225 16.2817 6.05664 14.52 7.38668 14.52H11.0773C11.3321 14.52 11.5387 14.3051 11.5387 14.04V3.48C11.5387 3.2149 11.7452 3 12 3C12.2548 3 12.4613 3.2149 12.4613 3.48V14.04C12.4613 14.8353 11.8417 15.48 11.0773 15.48H7.38668C6.94333 15.48 6.7552 16.0672 7.10988 16.344L11.7232 19.944Z" fill="#13A4BD"/>
</svg>
