<svg width="24" height="24" viewBox="0 0 24 24" fill="none" xmlns="http://www.w3.org/2000/svg">
<path fill-rule="evenodd" clip-rule="evenodd" d="M11.7232 4.056C11.8872 3.928 12.1128 3.928 12.2768 4.056L16.8901 7.656C17.2448 7.93277 17.0567 8.52 16.6133 8.52H14.768C14.5132 8.52 14.3067 8.7349 14.3067 9C14.3067 9.2651 14.5132 9.48 14.768 9.48H16.6133C17.9434 9.48 18.5077 7.71832 17.4437 6.888L12.8304 3.288C12.3383 2.904 11.6617 2.904 11.1696 3.288L6.55628 6.888C5.49225 7.71832 6.05664 9.48 7.38668 9.48H11.0773C11.3321 9.48 11.5387 9.6949 11.5387 9.96V20.52C11.5387 20.7851 11.7452 21 12 21C12.2548 21 12.4613 20.7851 12.4613 20.52V9.96C12.4613 9.16471 11.8417 8.52 11.0773 8.52H7.38668C6.94333 8.52 6.7552 7.93277 7.10988 7.656L11.7232 4.056Z" fill="#13A4BD"/>
</svg>
