<svg width="26" height="26" viewBox="0 0 26 26" fill="none" xmlns="http://www.w3.org/2000/svg">
<g clip-path="url(#clip0_1012_7862)">
<path fill-rule="evenodd" clip-rule="evenodd" d="M7.47309 2.01504C9.29309 2.1469 11.1911 3.03647 13.0074 4.83233C14.8237 3.03461 16.7198 2.14875 18.538 2.02061C20.592 1.8739 22.4064 2.70404 23.7194 4.01333C26.3008 6.58733 27.1124 11.2469 23.9088 14.4505C23.8979 14.4613 23.8868 14.4718 23.8754 14.482L13.6314 23.7622C13.4605 23.9172 13.2381 24.0031 13.0074 24.0031C12.7767 24.0031 12.5542 23.9172 12.3834 23.7622L2.13938 14.482C2.12797 14.4718 2.11683 14.4613 2.10595 14.4505C-1.11434 11.2302 -0.308335 6.57061 2.28238 3.99847C3.59909 2.69104 5.41724 1.86647 7.47309 2.01504Z" fill="#13A4BD"/>
</g>
<defs>
<clipPath id="clip0_1012_7862">
<rect width="26" height="26" fill="white"/>
</clipPath>
</defs>
</svg>
