<svg width="26" height="26" viewBox="0 0 26 26" fill="none" xmlns="http://www.w3.org/2000/svg">
<path fill-rule="evenodd" clip-rule="evenodd" d="M15.7083 4.87508C12.1185 4.87508 9.2083 7.78523 9.2083 11.3751C9.2083 11.6742 8.96579 11.9167 8.66664 11.9167C8.36748 11.9167 8.12497 11.6742 8.12497 11.3751C8.12497 7.18692 11.5201 3.79175 15.7083 3.79175C19.8965 3.79175 23.2916 7.18692 23.2916 11.3751C23.2916 15.5632 19.8965 18.9584 15.7083 18.9584C13.8306 18.9584 12.1115 18.2754 10.7874 17.1451L3.55671 22.1132C3.31015 22.2826 2.97294 22.2201 2.80353 21.9735C2.63412 21.7269 2.69666 21.3897 2.94323 21.2203L10.5266 16.0099C10.7383 15.8645 11.023 15.8877 11.2084 16.0656C12.3768 17.1868 13.9616 17.8751 15.7083 17.8751C19.2982 17.8751 22.2083 14.9649 22.2083 11.3751C22.2083 7.78523 19.2982 4.87508 15.7083 4.87508Z" fill="#13A4BD"/>
</svg>
