<svg width="24" height="24" viewBox="0 0 24 24" fill="none" xmlns="http://www.w3.org/2000/svg">
<path fill-rule="evenodd" clip-rule="evenodd" d="M16.0722 4.02447C15.1062 3.04182 13.7428 2.5 12.1519 2.5C10.561 2.5 9.19761 3.04182 8.23155 4.02447C7.26623 5.00636 6.73631 6.38891 6.73631 8C6.73631 10.169 7.68069 11.567 8.84948 12.4062C9.07663 12.5692 9.31138 12.7107 9.54819 12.8327C8.24203 13.1916 7.18146 13.8173 6.31796 14.5934C4.9526 15.8205 4.10634 17.3993 3.53621 18.813C3.43293 19.0691 3.55681 19.3604 3.81291 19.4637C4.06901 19.567 4.36035 19.4431 4.46363 19.187C5.0063 17.8414 5.78134 16.4202 6.98641 15.3371C8.17938 14.265 9.81996 13.5 12.1519 13.5C14.3319 13.5 15.9057 14.1685 17.0739 15.1279C18.2519 16.0953 19.0452 17.3816 19.6136 18.6532C19.9928 19.5016 19.3273 20.5 18.2826 20.5H6.74476C6.46861 20.5 6.24476 20.7239 6.24476 21C6.24476 21.2761 6.46861 21.5 6.74476 21.5H18.2826C19.9347 21.5 21.2478 19.8588 20.5265 18.2452C19.9231 16.8952 19.0502 15.4569 17.7085 14.3551C16.9121 13.7011 15.9602 13.1737 14.8202 12.8507C15.4299 12.5136 15.9311 12.0662 16.3299 11.5591C17.1927 10.462 17.5675 9.10016 17.5675 8C17.5675 6.38891 17.0375 5.00636 16.0722 4.02447ZM15.3591 4.72553C16.1143 5.49364 16.5675 6.61109 16.5675 8C16.5675 8.89984 16.254 10.038 15.5439 10.9409C14.8474 11.8265 13.7605 12.5 12.1519 12.5C11.5013 12.5 10.3788 12.2731 9.43272 11.5938C8.51239 10.933 7.73631 9.83102 7.73631 8C7.73631 6.61109 8.18951 5.49364 8.94465 4.72553C9.69904 3.95818 10.7934 3.5 12.1519 3.5C13.5104 3.5 14.6047 3.95818 15.3591 4.72553Z" fill="black"/>
</svg>
