<svg width="24" height="24" viewBox="0 0 24 24" fill="none" xmlns="http://www.w3.org/2000/svg">
<path fill-rule="evenodd" clip-rule="evenodd" d="M14.7448 4.45872C15.2783 3.8801 16.2367 3.84351 16.8208 4.37948L18.3086 5.74493C18.8278 6.22139 18.8624 6.98354 18.3881 7.49792L8.59463 18.1196C8.55346 18.1643 8.50284 18.2008 8.44584 18.227L6.46414 19.1363H19.5294C19.7893 19.1363 20 19.3296 20 19.5681C20 19.8066 19.7893 20 19.5294 20H4.47071C4.25247 20 4.06286 19.8623 4.01272 19.6674C3.96257 19.4724 4.06505 19.2714 4.26026 19.1819L7.93854 17.4941L17.6696 6.94C17.8277 6.76854 17.8162 6.51449 17.6431 6.35567L16.1553 4.99022C15.9606 4.81157 15.6411 4.82376 15.4633 5.01664L5.82966 15.465L4.91715 17.9773C4.83496 18.2035 4.56846 18.3258 4.3219 18.2504C4.07534 18.175 3.94209 17.9304 4.02428 17.7041L4.96545 15.1129C4.98438 15.0608 5.01397 15.0125 5.05264 14.9706L14.7448 4.45872Z" fill="#13A4BD"/>
</svg>
